<mxfile host="app.diagrams.net" agent="Mozilla/5.0 (Windows NT 10.0; Win64; x64) AppleWebKit/537.36 (KHTML, like Gecko) Chrome/140.0.0.0 Safari/537.36" version="28.2.6">
  <diagram name="Page-1" id="Ky3ZZQYvCj5vKSZPcQct">
    <mxGraphModel dx="1463" dy="1102" grid="1" gridSize="10" guides="1" tooltips="1" connect="1" arrows="1" fold="1" page="1" pageScale="1" pageWidth="1654" pageHeight="1169" math="0" shadow="0">
      <root>
        <mxCell id="0" />
        <mxCell id="1" parent="0" />
        <mxCell id="20LRv7rVhu3HgmoaZlKi-34" value="" style="endArrow=none;html=1;rounded=0;entryX=0;entryY=0.75;entryDx=0;entryDy=0;exitX=0;exitY=0.5;exitDx=0;exitDy=0;" edge="1" parent="1" source="20LRv7rVhu3HgmoaZlKi-9" target="20LRv7rVhu3HgmoaZlKi-2">
          <mxGeometry width="50" height="50" relative="1" as="geometry">
            <mxPoint x="980" y="525" as="sourcePoint" />
            <mxPoint x="1260" y="210" as="targetPoint" />
            <Array as="points">
              <mxPoint x="1140" y="205" />
            </Array>
          </mxGeometry>
        </mxCell>
        <mxCell id="20LRv7rVhu3HgmoaZlKi-33" value="" style="endArrow=none;html=1;rounded=0;entryX=0;entryY=0.5;entryDx=0;entryDy=0;exitX=0;exitY=0.5;exitDx=0;exitDy=0;" edge="1" parent="1" source="20LRv7rVhu3HgmoaZlKi-39" target="20LRv7rVhu3HgmoaZlKi-1">
          <mxGeometry width="50" height="50" relative="1" as="geometry">
            <mxPoint x="920" y="520" as="sourcePoint" />
            <mxPoint x="970" y="470" as="targetPoint" />
            <Array as="points">
              <mxPoint x="560" y="190" />
            </Array>
          </mxGeometry>
        </mxCell>
        <mxCell id="20LRv7rVhu3HgmoaZlKi-1" value="Client" style="rounded=0;whiteSpace=wrap;html=1;fillColor=#E6FFCC;" vertex="1" parent="1">
          <mxGeometry x="680" y="160" width="160" height="60" as="geometry" />
        </mxCell>
        <mxCell id="20LRv7rVhu3HgmoaZlKi-2" value="Contract" style="rounded=0;whiteSpace=wrap;html=1;fillColor=#E6FFCC;" vertex="1" parent="1">
          <mxGeometry x="1200" y="160" width="160" height="60" as="geometry" />
        </mxCell>
        <mxCell id="20LRv7rVhu3HgmoaZlKi-3" value="phone" style="ellipse;whiteSpace=wrap;html=1;shadow=0;fillColor=#CCFFFF;" vertex="1" parent="1">
          <mxGeometry x="560" y="290" width="160" height="50" as="geometry" />
        </mxCell>
        <mxCell id="20LRv7rVhu3HgmoaZlKi-4" value="email" style="ellipse;whiteSpace=wrap;html=1;shadow=0;fillColor=#CCFFFF;" vertex="1" parent="1">
          <mxGeometry x="560" y="350" width="160" height="50" as="geometry" />
        </mxCell>
        <mxCell id="20LRv7rVhu3HgmoaZlKi-5" value="name" style="ellipse;whiteSpace=wrap;html=1;shadow=0;fillColor=#CCFFFF;" vertex="1" parent="1">
          <mxGeometry x="560" y="410" width="160" height="50" as="geometry" />
        </mxCell>
        <mxCell id="20LRv7rVhu3HgmoaZlKi-7" value="start_date" style="ellipse;whiteSpace=wrap;html=1;shadow=0;fillColor=#CCFFFF;" vertex="1" parent="1">
          <mxGeometry x="1140" y="355" width="160" height="50" as="geometry" />
        </mxCell>
        <mxCell id="20LRv7rVhu3HgmoaZlKi-8" value="end_date" style="ellipse;whiteSpace=wrap;html=1;shadow=0;fillColor=#CCFFFF;" vertex="1" parent="1">
          <mxGeometry x="1140" y="415" width="160" height="50" as="geometry" />
        </mxCell>
        <mxCell id="20LRv7rVhu3HgmoaZlKi-9" value="cost_amount" style="ellipse;whiteSpace=wrap;html=1;shadow=0;fillColor=#CCFFFF;" vertex="1" parent="1">
          <mxGeometry x="1140" y="535" width="160" height="50" as="geometry" />
        </mxCell>
        <mxCell id="20LRv7rVhu3HgmoaZlKi-10" value="update_date" style="ellipse;whiteSpace=wrap;html=1;shadow=0;fillColor=#CCFFFF;" vertex="1" parent="1">
          <mxGeometry x="1140" y="475" width="160" height="50" as="geometry" />
        </mxCell>
        <mxCell id="20LRv7rVhu3HgmoaZlKi-11" value="Person" style="rounded=0;whiteSpace=wrap;html=1;fillColor=#E6FFCC;" vertex="1" parent="1">
          <mxGeometry x="540" y="761" width="160" height="60" as="geometry" />
        </mxCell>
        <mxCell id="20LRv7rVhu3HgmoaZlKi-12" value="Company" style="rounded=0;whiteSpace=wrap;html=1;fillColor=#E6FFCC;" vertex="1" parent="1">
          <mxGeometry x="820" y="761" width="160" height="60" as="geometry" />
        </mxCell>
        <mxCell id="20LRv7rVhu3HgmoaZlKi-14" value="birthdate" style="ellipse;whiteSpace=wrap;html=1;shadow=0;fillColor=#CCFFFF;" vertex="1" parent="1">
          <mxGeometry x="500" y="890" width="160" height="50" as="geometry" />
        </mxCell>
        <mxCell id="20LRv7rVhu3HgmoaZlKi-15" value="company_identifier" style="ellipse;whiteSpace=wrap;html=1;fontStyle=0;shadow=0;fillColor=#CCFFFF;" vertex="1" parent="1">
          <mxGeometry x="780" y="890" width="160" height="50" as="geometry" />
        </mxCell>
        <mxCell id="20LRv7rVhu3HgmoaZlKi-16" value="" style="triangle;whiteSpace=wrap;html=1;rotation=-90;fillColor=#FFFFCC;" vertex="1" parent="1">
          <mxGeometry x="730" y="585" width="60" height="80" as="geometry" />
        </mxCell>
        <mxCell id="20LRv7rVhu3HgmoaZlKi-17" value="IS-A" style="text;html=1;whiteSpace=wrap;strokeColor=none;fillColor=none;align=center;verticalAlign=middle;rounded=0;" vertex="1" parent="1">
          <mxGeometry x="730" y="625" width="60" height="30" as="geometry" />
        </mxCell>
        <mxCell id="20LRv7rVhu3HgmoaZlKi-18" value="" style="endArrow=none;html=1;rounded=0;entryX=0.5;entryY=1;entryDx=0;entryDy=0;exitX=1;exitY=0.5;exitDx=0;exitDy=0;" edge="1" parent="1" source="20LRv7rVhu3HgmoaZlKi-16" target="20LRv7rVhu3HgmoaZlKi-1">
          <mxGeometry width="50" height="50" relative="1" as="geometry">
            <mxPoint x="1120" y="590" as="sourcePoint" />
            <mxPoint x="1170" y="540" as="targetPoint" />
          </mxGeometry>
        </mxCell>
        <mxCell id="20LRv7rVhu3HgmoaZlKi-19" value="" style="endArrow=none;html=1;rounded=0;exitX=0.5;exitY=0;exitDx=0;exitDy=0;entryX=0;entryY=0.75;entryDx=0;entryDy=0;" edge="1" parent="1" source="20LRv7rVhu3HgmoaZlKi-12" target="20LRv7rVhu3HgmoaZlKi-16">
          <mxGeometry width="50" height="50" relative="1" as="geometry">
            <mxPoint x="1120" y="705" as="sourcePoint" />
            <mxPoint x="820" y="655" as="targetPoint" />
          </mxGeometry>
        </mxCell>
        <mxCell id="20LRv7rVhu3HgmoaZlKi-20" value="" style="endArrow=none;html=1;rounded=0;entryX=0;entryY=0.25;entryDx=0;entryDy=0;exitX=0.5;exitY=0;exitDx=0;exitDy=0;" edge="1" parent="1" source="20LRv7rVhu3HgmoaZlKi-11" target="20LRv7rVhu3HgmoaZlKi-16">
          <mxGeometry width="50" height="50" relative="1" as="geometry">
            <mxPoint x="810" y="775" as="sourcePoint" />
            <mxPoint x="750" y="695" as="targetPoint" />
          </mxGeometry>
        </mxCell>
        <mxCell id="20LRv7rVhu3HgmoaZlKi-21" value="sign" style="rhombus;whiteSpace=wrap;html=1;fillColor=#FFFFCC;" vertex="1" parent="1">
          <mxGeometry x="970" y="170" width="100" height="40" as="geometry" />
        </mxCell>
        <mxCell id="20LRv7rVhu3HgmoaZlKi-22" value="" style="endArrow=none;html=1;rounded=0;entryX=0;entryY=0.5;entryDx=0;entryDy=0;exitX=1;exitY=0.5;exitDx=0;exitDy=0;" edge="1" parent="1" source="20LRv7rVhu3HgmoaZlKi-1" target="20LRv7rVhu3HgmoaZlKi-21">
          <mxGeometry width="50" height="50" relative="1" as="geometry">
            <mxPoint x="1170" y="550" as="sourcePoint" />
            <mxPoint x="1220" y="500" as="targetPoint" />
          </mxGeometry>
        </mxCell>
        <mxCell id="20LRv7rVhu3HgmoaZlKi-23" value="" style="endArrow=none;html=1;rounded=0;entryX=0;entryY=0.5;entryDx=0;entryDy=0;exitX=1;exitY=0.5;exitDx=0;exitDy=0;" edge="1" parent="1" source="20LRv7rVhu3HgmoaZlKi-21" target="20LRv7rVhu3HgmoaZlKi-2">
          <mxGeometry width="50" height="50" relative="1" as="geometry">
            <mxPoint x="1170" y="550" as="sourcePoint" />
            <mxPoint x="1220" y="500" as="targetPoint" />
          </mxGeometry>
        </mxCell>
        <mxCell id="20LRv7rVhu3HgmoaZlKi-24" value="1..1" style="text;html=1;whiteSpace=wrap;strokeColor=none;fillColor=none;align=center;verticalAlign=middle;rounded=0;" vertex="1" parent="1">
          <mxGeometry x="840" y="160" width="60" height="30" as="geometry" />
        </mxCell>
        <mxCell id="20LRv7rVhu3HgmoaZlKi-25" value="0..*" style="text;html=1;whiteSpace=wrap;strokeColor=none;fillColor=none;align=center;verticalAlign=middle;rounded=0;" vertex="1" parent="1">
          <mxGeometry x="1140" y="160" width="60" height="30" as="geometry" />
        </mxCell>
        <mxCell id="20LRv7rVhu3HgmoaZlKi-26" value="&lt;i&gt;client_id&lt;/i&gt;" style="ellipse;whiteSpace=wrap;html=1;shadow=0;fillColor=#CCFFFF;" vertex="1" parent="1">
          <mxGeometry x="1140" y="295" width="160" height="50" as="geometry" />
        </mxCell>
        <mxCell id="20LRv7rVhu3HgmoaZlKi-28" value="contract_id" style="ellipse;whiteSpace=wrap;html=1;fontStyle=5;shadow=0;fillColor=#CCFFFF;" vertex="1" parent="1">
          <mxGeometry x="1140" y="235" width="160" height="50" as="geometry" />
        </mxCell>
        <mxCell id="20LRv7rVhu3HgmoaZlKi-29" value="client_id" style="ellipse;whiteSpace=wrap;html=1;fontStyle=5;shadow=0;fillColor=#CCFFFF;" vertex="1" parent="1">
          <mxGeometry x="560" y="230" width="160" height="50" as="geometry" />
        </mxCell>
        <mxCell id="20LRv7rVhu3HgmoaZlKi-30" value="client_id" style="ellipse;whiteSpace=wrap;html=1;fontStyle=7;shadow=0;fillColor=#CCFFFF;" vertex="1" parent="1">
          <mxGeometry x="780" y="830" width="160" height="50" as="geometry" />
        </mxCell>
        <mxCell id="20LRv7rVhu3HgmoaZlKi-32" value="client_id" style="ellipse;whiteSpace=wrap;html=1;fontStyle=7;shadow=0;fillColor=#CCFFFF;" vertex="1" parent="1">
          <mxGeometry x="500" y="830" width="160" height="50" as="geometry" />
        </mxCell>
        <mxCell id="20LRv7rVhu3HgmoaZlKi-35" value="" style="endArrow=none;html=1;rounded=0;entryX=0;entryY=0.5;entryDx=0;entryDy=0;exitX=0;exitY=0.5;exitDx=0;exitDy=0;" edge="1" parent="1" source="20LRv7rVhu3HgmoaZlKi-14" target="20LRv7rVhu3HgmoaZlKi-11">
          <mxGeometry width="50" height="50" relative="1" as="geometry">
            <mxPoint x="800" y="765" as="sourcePoint" />
            <mxPoint x="850" y="715" as="targetPoint" />
            <Array as="points">
              <mxPoint x="500" y="790" />
            </Array>
          </mxGeometry>
        </mxCell>
        <mxCell id="20LRv7rVhu3HgmoaZlKi-36" value="" style="endArrow=none;html=1;rounded=0;entryX=0;entryY=0.5;entryDx=0;entryDy=0;exitX=0;exitY=0.5;exitDx=0;exitDy=0;" edge="1" parent="1" source="20LRv7rVhu3HgmoaZlKi-15" target="20LRv7rVhu3HgmoaZlKi-12">
          <mxGeometry width="50" height="50" relative="1" as="geometry">
            <mxPoint x="800" y="765" as="sourcePoint" />
            <mxPoint x="850" y="715" as="targetPoint" />
            <Array as="points">
              <mxPoint x="780" y="791" />
            </Array>
          </mxGeometry>
        </mxCell>
        <mxCell id="20LRv7rVhu3HgmoaZlKi-37" value="is_deleted" style="ellipse;whiteSpace=wrap;html=1;shadow=0;fillColor=#CCFFFF;" vertex="1" parent="1">
          <mxGeometry x="560" y="470" width="160" height="50" as="geometry" />
        </mxCell>
        <mxCell id="20LRv7rVhu3HgmoaZlKi-39" value="deletion_date" style="ellipse;whiteSpace=wrap;html=1;shadow=0;fillColor=#CCFFFF;" vertex="1" parent="1">
          <mxGeometry x="560" y="530" width="160" height="50" as="geometry" />
        </mxCell>
        <mxCell id="20LRv7rVhu3HgmoaZlKi-41" value="Soft deletion for archives" style="text;html=1;whiteSpace=wrap;strokeColor=none;fillColor=none;align=center;verticalAlign=middle;rounded=0;" vertex="1" parent="1">
          <mxGeometry x="410" y="540" width="80" height="40" as="geometry" />
        </mxCell>
        <mxCell id="20LRv7rVhu3HgmoaZlKi-42" value="" style="endArrow=none;dashed=1;html=1;dashPattern=1 3;strokeWidth=2;rounded=0;exitX=1;exitY=0;exitDx=0;exitDy=0;" edge="1" parent="1" source="20LRv7rVhu3HgmoaZlKi-41">
          <mxGeometry width="50" height="50" relative="1" as="geometry">
            <mxPoint x="800" y="530" as="sourcePoint" />
            <mxPoint x="540" y="510" as="targetPoint" />
          </mxGeometry>
        </mxCell>
        <mxCell id="20LRv7rVhu3HgmoaZlKi-43" value="" style="endArrow=none;dashed=1;html=1;dashPattern=1 3;strokeWidth=2;rounded=0;exitX=1;exitY=0;exitDx=0;exitDy=0;" edge="1" parent="1" source="20LRv7rVhu3HgmoaZlKi-41">
          <mxGeometry width="50" height="50" relative="1" as="geometry">
            <mxPoint x="520" y="590" as="sourcePoint" />
            <mxPoint x="540" y="550" as="targetPoint" />
          </mxGeometry>
        </mxCell>
      </root>
    </mxGraphModel>
  </diagram>
</mxfile>
